<svg width="26" height="26" viewBox="0 0 26 26" fill="none" xmlns="http://www.w3.org/2000/svg">
<path d="M2.40234 23.3574H23.7148C23.8755 23.3574 24.0135 23.4957 24.0137 23.6562C24.0137 23.817 23.8756 23.956 23.7148 23.9561H2.40234C2.24175 23.9558 2.10352 23.8169 2.10352 23.6562C2.10373 23.4958 2.24187 23.3576 2.40234 23.3574Z" fill="black" stroke="#DADADA"/>
<path d="M11.5654 3.12109C12.4387 2.44206 13.6681 2.43981 14.5547 3.12207L22.0098 8.91504V8.91602C22.595 9.37708 22.9492 10.0968 22.9492 10.8359V23.1553H22.3506V10.8467C22.3506 10.2871 22.0874 9.75024 21.6514 9.40137L21.6455 9.39648L14.1855 3.59961C13.5236 3.08541 12.6023 3.08936 11.9355 3.59668L11.9316 3.60059L4.47559 9.40527C4.03086 9.74623 3.76817 10.2876 3.76758 10.8447L3.7168 23.1553H3.11816L3.16992 10.8379V10.8359C3.16992 10.0859 3.51287 9.38975 4.10547 8.92969L4.10645 8.92871L11.5654 3.12109Z" fill="black" stroke="#DADADA"/>
<path d="M9.3291 11.6348H16.7881C17.8332 11.6348 18.6864 12.4871 18.6865 13.5322V23.6553C18.6865 23.816 18.5475 23.9551 18.3867 23.9551H7.73047C7.56987 23.9549 7.43164 23.8159 7.43164 23.6553V13.5322L7.44141 13.3389C7.53236 12.4476 8.24449 11.7355 9.13574 11.6445L9.3291 11.6348ZM9.3291 12.2334C8.61618 12.2335 8.03035 12.8193 8.03027 13.5322V23.3564H18.0879V13.5322C18.0878 12.8193 17.5011 12.2334 16.7881 12.2334H9.3291Z" fill="black" stroke="#DADADA"/>
<path d="M10.9268 17.2305C11.0874 17.2305 11.2263 17.3687 11.2266 17.5293V19.1279C11.2266 19.2887 11.0875 19.4277 10.9268 19.4277C10.7662 19.4275 10.6279 19.2886 10.6279 19.1279V17.5293C10.6281 17.3688 10.7663 17.2307 10.9268 17.2305Z" fill="black" stroke="#DADADA"/>
<path d="M11.46 7.90625H14.6572C14.8178 7.90629 14.9558 8.04451 14.9561 8.20508C14.9561 8.36581 14.8179 8.50484 14.6572 8.50488H11.46C11.2994 8.50467 11.1611 8.36571 11.1611 8.20508C11.1613 8.04461 11.2995 7.90647 11.46 7.90625Z" fill="black" stroke="#DADADA"/>
</svg>
